<?xml version="1.0" encoding="utf-8"?>
<!-- Generator: Adobe Illustrator 22.1.0, SVG Export Plug-In . SVG Version: 6.00 Build 0)  -->
<svg version="1.1" id="Layer_1" xmlns="http://www.w3.org/2000/svg" xmlns:xlink="http://www.w3.org/1999/xlink" x="0px" y="0px"
	 viewBox="0 0 48 48" style="enable-background:new 0 0 48 48;" xml:space="preserve">
<style type="text/css">
	.st0{fill:#C6CACC;}
	.st1{fill:#C0C5C9;}
	.st2{fill:url(#SVGID_1_);}
	.st3{fill:#7A7F84;}
	.st4{fill:#CBCFD1;}
	.st5{fill:#979B9E;}
</style>
<title>open, trunk, car, vehicle, transportation</title>
<path class="st0" d="M3.3,18.7l9.8,9.8l2.1-2.1L4.8,17.1c-0.4-0.4-1.1-0.4-1.5,0l0,0C3.2,17.4,4,18.1,3.3,18.7z"/>
<path class="st1" d="M3.1,28.1h2.2l0,0V33l0,0H4.1c-0.6,0-1-0.4-1-1L3.1,28.1L3.1,28.1z"/>
<linearGradient id="SVGID_1_" gradientUnits="userSpaceOnUse" x1="23.9985" y1="5.83" x2="23.9985" y2="12.38" gradientTransform="matrix(1 0 0 -1 0 50)">
	<stop  offset="0" style="stop-color:#273A9B"/>
	<stop  offset="0.56" style="stop-color:#202F65"/>
	<stop  offset="1" style="stop-color:#021E2F"/>
</linearGradient>
<path class="st2" d="M7,22.5c-2.2,0-4,1.8-4,4l0,0c0,2.6,0.4,5.3,1.3,7.8c0.4,1,1.3,1.7,2.4,1.7h34.5c1.1,0,2-0.7,2.4-1.7
	c1.2-3.3,1.6-6.7,1.2-10.2c-0.1-0.9-0.9-1.7-1.9-1.6H7z"/>
<path class="st1" d="M44.9,24.1c-0.1-0.9-0.9-1.7-1.9-1.6h-7c-0.7,0-1.3-0.4-1.5-1l-3.8-9.8C30.1,10.1,28.6,9,26.9,9h-8.5
	c-4,0-7.6,2.5-8.9,6.3l-1.8,5.3c-0.3,1-1,1.8-2,2.1C4.1,23.3,3,24.8,3,26.5l0,0c0,2.6,0.4,5.3,1.3,7.8c0.4,1,1.3,1.7,2.4,1.7H9v-1.5
	h9v0.8c0,0.4,0.3,0.7,0.7,0.7h0h12.1c0.4,0,0.7-0.3,0.7-0.7l0,0v-0.8h9v0.8c0,0.4,0.3,0.7,0.7,0.7c1.1,0,2.1-0.7,2.5-1.7
	C44.8,31.1,45.3,27.6,44.9,24.1L44.9,24.1z"/>
<path class="st3" d="M3.1,28.1c0.1,2.1,0.6,4.2,1.3,6.2c0.4,1,1.3,1.7,2.4,1.7H9v-1.5h9v0.8c0,0.4,0.3,0.7,0.7,0.7h0h12.1
	c0.4,0,0.7-0.3,0.7-0.7l0,0v-0.8h9v0.8c0,0.4,0.3,0.7,0.7,0.7c1.1,0,2.1-0.7,2.5-1.7c0.7-2,1.1-4.1,1.3-6.2L3.1,28.1z"/>
<path class="st4" d="M5.7,24.2c1-0.4,1.7-1.2,2-2.1l1.8-5.3c1.3-3.8,4.9-6.3,8.9-6.3h8.5c1.7,0,3.2,1.1,3.9,2.7l4.4,9.8
	c0.2,0.6,0.3,1,0.9,1h7c0.9,0,1.7,0.7,1.8,1.6c0,0.5,0.1,1,0.1,1.5c0-0.2,0-0.4,0-0.6c0-0.8,0-1.6-0.1-2.4c-0.1-0.9-0.9-1.6-1.8-1.6
	h-7c-0.7,0-1.3-0.4-1.5-1l-3.8-9.8C30.1,10.1,28.6,9,26.9,9h-8.5c-4,0-7.6,2.5-8.9,6.3l-1.8,5.3c-0.3,1-1,1.8-2,2.1
	C4.1,23.3,3,24.8,3,26.5l0,0c0,0.3,0,0.6,0,1C3.2,26,4.2,24.7,5.7,24.2z"/>
<circle class="st5" cx="13.5" cy="34.5" r="4.5"/>
<circle class="st3" cx="13.5" cy="34.5" r="1.5"/>
<circle class="st5" cx="36" cy="34.5" r="4.5"/>
<circle class="st3" cx="36" cy="34.5" r="1.5"/>
<path class="st3" d="M28.4,21.4c0.3,0.7,0.9,1.1,1.6,1.1h6c-0.7,0-1.3-0.4-1.5-1l-3-8h-5.2c-0.3,0-0.6,0.3-0.6,0.6
	c0,0.1,0,0.2,0,0.2L28.4,21.4z"/>
<path class="st3" d="M23,13.5h-5.8c-2,0-3.7,1.7-3.7,3.7l0,0V21c0,0.8,0.7,1.5,1.5,1.5h11c0.4,0,0.7-0.3,0.7-0.6c0-0.1,0-0.2,0-0.2
	l-3-7.7C23.5,13.7,23.3,13.5,23,13.5z"/>
<path class="st3" d="M44.3,30h0.5c0.2-1.1,0.3-2.3,0.3-3.5c0-0.4,0-0.7,0-1h-0.7c-1.2,0-2.3,1-2.3,2.2l0,0C42,29,43,30,44.3,30z"/>
<path class="st1" d="M44.5,29.3h0.3c0.1-0.8,0.2-1.5,0.2-2.3c0-0.2,0-0.5,0-0.7h-0.5c-0.8,0-1.5,0.7-1.5,1.5l0,0l0,0
	C43,28.6,43.7,29.3,44.5,29.3z"/>
</svg>
