<?xml version="1.0" encoding="utf-8"?>
<!-- Generator: Adobe Illustrator 22.1.0, SVG Export Plug-In . SVG Version: 6.00 Build 0)  -->
<svg version="1.1" id="mdi-car-seat" xmlns="http://www.w3.org/2000/svg" xmlns:xlink="http://www.w3.org/1999/xlink" x="0px"
	 y="0px" viewBox="0 0 24 24" style="enable-background:new 0 0 24 24;" xml:space="preserve">
<style type="text/css">
	.st0{fill:#7A7F84;}
</style>
<text transform="matrix(1 0 0 1 360 30)" style="font-family:'MyriadPro-Regular'; font-size:12px;">#6c757d</text>
<path class="st0" d="M7,18c0,0-3-8-3-12s2-4,2-4h1c0,0,1,0,1,1S7,4,7,6s3,4,3,7S7,18,7,18 M12,17c-1,0-4,2.5-4,2.5
	c-0.3,0.2-0.2,0.5,0,0.8c0,0,1,1.8,3,1.8h6c1.1,0,2-0.9,2-2v-1c0-1.1-0.9-2-2-2h-5V17z"/>
</svg>
